<svg width="21" height="19" viewBox="0 0 21 19" fill="none" xmlns="http://www.w3.org/2000/svg">
<g id="Group">
<path id="Vector" d="M16.169 5.36043H14.3724C14.3724 3.68579 12.7645 2.32941 10.7794 2.32941C8.79421 2.32941 7.18632 3.68579 7.18632 5.36043H5.38979C4.4017 5.36043 3.59326 6.0424 3.59326 6.87594V15.969C3.59326 16.8025 4.4017 17.4845 5.38979 17.4845H16.169C17.1571 17.4845 17.9655 16.8025 17.9655 15.969V6.87594C17.9655 6.0424 17.1571 5.36043 16.169 5.36043ZM10.7794 3.84492C11.7675 3.84492 12.5759 4.5269 12.5759 5.36043H8.98285C8.98285 4.5269 9.79129 3.84492 10.7794 3.84492ZM16.169 15.969H5.38979V6.87594H7.18632V8.39144C7.18632 8.80821 7.59054 9.1492 8.08458 9.1492C8.57863 9.1492 8.98285 8.80821 8.98285 8.39144V6.87594H12.5759V8.39144C12.5759 8.80821 12.9801 9.1492 13.4742 9.1492C13.9682 9.1492 14.3724 8.80821 14.3724 8.39144V6.87594H16.169V15.969Z" fill="#FCB734"/>
</g>
</svg>
