<svg xmlns="http://www.w3.org/2000/svg" width="57" height="55" fill="none" viewBox="0 0 57 55"><g id="shopping_cart" clip-path="url(#clip0_7762_309)"><path id="Vector" fill="#902223" d="M37.1609 30.0384C38.9217 30.0384 40.4713 29.1081 41.2696 27.7011L49.6748 12.9738C50.5435 11.4761 49.4165 9.61537 47.6322 9.61537H12.8843L10.6774 5.0769H3V9.61537H7.69565L16.1478 26.8388L12.9783 32.3758C11.2643 35.4165 13.5183 39.1154 17.087 39.1154H45.2609V34.5769H17.087L19.6696 30.0384H37.1609ZM15.1148 14.1538H43.6409L37.1609 25.5H20.6791L15.1148 14.1538ZM17.087 41.3846C14.5043 41.3846 12.4148 43.4269 12.4148 45.9231C12.4148 48.4192 14.5043 50.4615 17.087 50.4615C19.6696 50.4615 21.7826 48.4192 21.7826 45.9231C21.7826 43.4269 19.6696 41.3846 17.087 41.3846ZM40.5652 41.3846C37.9826 41.3846 35.893 43.4269 35.893 45.9231C35.893 48.4192 37.9826 50.4615 40.5652 50.4615C43.1478 50.4615 45.2609 48.4192 45.2609 45.9231C45.2609 43.4269 43.1478 41.3846 40.5652 41.3846Z"/></g><defs><clipPath id="clip0_7762_309"><rect width="56.348" height="54.462" fill="#fff" transform="translate(0.652344 0.538452)"/></clipPath></defs></svg>