<svg width="22" height="19" viewBox="0 0 22 19" fill="none" xmlns="http://www.w3.org/2000/svg">
<g clip-path="url(#clip0_7986_740)">
<path d="M18.3333 3.16699H3.66659C2.65825 3.16699 1.84242 3.87949 1.84242 4.75033L1.83325 14.2503C1.83325 15.1212 2.65825 15.8337 3.66659 15.8337H18.3333C19.3416 15.8337 20.1666 15.1212 20.1666 14.2503V4.75033C20.1666 3.87949 19.3416 3.16699 18.3333 3.16699ZM17.9666 6.53158L11.4858 10.0307C11.1924 10.1891 10.8074 10.1891 10.5141 10.0307L4.03325 6.53158C3.80409 6.40491 3.66659 6.19116 3.66659 5.96158C3.66659 5.43116 4.33575 5.11449 4.85825 5.39158L10.9999 8.70866L17.1416 5.39158C17.6641 5.11449 18.3333 5.43116 18.3333 5.96158C18.3333 6.19116 18.1958 6.40491 17.9666 6.53158Z" fill="black"/>
</g>
<defs>
<clipPath id="clip0_7986_740">
<rect width="22" height="19" fill="white"/>
</clipPath>
</defs>
</svg>
