<svg width="22" height="20" viewBox="0 0 22 20" fill="none" xmlns="http://www.w3.org/2000/svg">
<g clip-path="url(#clip0_7986_752)">
<path d="M8.24992 10.0003C10.0191 10.0003 11.4583 8.69199 11.4583 7.08366C11.4583 5.47533 10.0191 4.16699 8.24992 4.16699C6.48075 4.16699 5.04159 5.47533 5.04159 7.08366C5.04159 8.69199 6.48075 10.0003 8.24992 10.0003ZM8.24992 5.83366C9.01075 5.83366 9.62492 6.39199 9.62492 7.08366C9.62492 7.77533 9.01075 8.33366 8.24992 8.33366C7.48909 8.33366 6.87492 7.77533 6.87492 7.08366C6.87492 6.39199 7.48909 5.83366 8.24992 5.83366ZM8.24992 11.4587C6.10492 11.4587 1.83325 12.4337 1.83325 14.3753V15.8337H14.6666V14.3753C14.6666 12.4337 10.3949 11.4587 8.24992 11.4587ZM3.97825 14.167C4.74825 13.6837 6.60909 13.1253 8.24992 13.1253C9.89075 13.1253 11.7516 13.6837 12.5216 14.167H3.97825ZM14.7033 11.5087C15.7666 12.2087 16.4999 13.142 16.4999 14.3753V15.8337H20.1666V14.3753C20.1666 12.692 16.9583 11.7337 14.7033 11.5087ZM13.7499 10.0003C15.5191 10.0003 16.9583 8.69199 16.9583 7.08366C16.9583 5.47533 15.5191 4.16699 13.7499 4.16699C13.2549 4.16699 12.7966 4.27533 12.3749 4.45866C12.9524 5.20033 13.2916 6.10866 13.2916 7.08366C13.2916 8.05866 12.9524 8.96699 12.3749 9.70866C12.7966 9.89199 13.2549 10.0003 13.7499 10.0003Z" fill="black"/>
</g>
<defs>
<clipPath id="clip0_7986_752">
<rect width="22" height="20" fill="white"/>
</clipPath>
</defs>
</svg>
