<svg width="22" height="19" viewBox="0 0 22 19" fill="none" xmlns="http://www.w3.org/2000/svg">
<g clip-path="url(#clip0_7986_744)">
<path d="M17.4167 9.5H19.25C19.25 5.56542 15.5559 2.375 11 2.375V3.95833C14.5475 3.95833 17.4167 6.43625 17.4167 9.5ZM13.75 9.5H15.5834C15.5834 7.315 13.53 5.54167 11 5.54167V7.125C12.5217 7.125 13.75 8.18583 13.75 9.5ZM12.1092 13.7513C9.51503 12.6113 7.38837 10.7825 6.06837 8.53417L8.38753 6.53125L7.82837 2.375H2.77753C2.24587 10.4342 9.91837 17.0604 19.25 16.6012V12.2392L14.4192 11.7563L12.1092 13.7513Z" fill="black"/>
</g>
<defs>
<clipPath id="clip0_7986_744">
<rect width="22" height="19" fill="white"/>
</clipPath>
</defs>
</svg>
