<svg width="22" height="19" viewBox="0 0 22 19" fill="none" xmlns="http://www.w3.org/2000/svg">
<g clip-path="url(#clip0_7986_751)">
<path opacity="0.3" d="M11.0641 4.75781C7.51663 4.75781 4.64746 7.23573 4.64746 10.2995C4.64746 13.3632 7.51663 15.8411 11.0641 15.8411C14.6116 15.8411 17.4808 13.3632 17.4808 10.2995C17.4808 7.23573 14.6116 4.75781 11.0641 4.75781V4.75781ZM11.9808 11.0911H10.1475V6.34115H11.9808V11.0911Z" fill="black"/>
<path d="M8.31421 0.798828H13.8142V2.38216H8.31421V0.798828ZM10.1475 6.34049H11.9809V11.0905H10.1475V6.34049ZM17.5084 5.84966L18.81 4.72549C18.4159 4.32174 17.985 3.94174 17.5175 3.60924L16.2159 4.73341C14.795 3.75174 13.0075 3.16591 11.0642 3.16591C6.50838 3.16591 2.81421 6.35633 2.81421 10.2909C2.81421 14.2255 6.49921 17.4159 11.0642 17.4159C15.6292 17.4159 19.3142 14.2255 19.3142 10.2909C19.3142 8.62049 18.6359 7.06883 17.5084 5.84966ZM11.0642 15.8405C7.51671 15.8405 4.64754 13.3626 4.64754 10.2988C4.64754 7.23508 7.51671 4.75716 11.0642 4.75716C14.6117 4.75716 17.4809 7.23508 17.4809 10.2988C17.4809 13.3626 14.6117 15.8405 11.0642 15.8405Z" fill="black"/>
</g>
<defs>
<clipPath id="clip0_7986_751">
<rect width="22" height="19" fill="white"/>
</clipPath>
</defs>
</svg>
